<svg id="l_d_1505" xmlns="http://www.w3.org/2000/svg" xmlns:xlink="http://www.w3.org/1999/xlink" viewBox="0 0 35 35" width="35" height="35" preserveAspectRatio="xMidYMid meet" style="width: 100%; height: 100%; transform: translate3d(0px, 0px, 0px); content-visibility: visible;">
  <defs id="l_d_1506">
    <clipPath id="__lottie_element_618">
      <rect id="l_d_1509" width="35" height="35" x="0" y="0"></rect>
    </clipPath>
    <g id="__lottie_element_626">
      <g id="l_d_1522" transform="matrix(1,0,0,1,8.5,13.99799919128418)" opacity="1" style="display: block;">
        <path id="l_d_1527" fill="rgb(255,0,0)" fill-opacity="1" d="M5,17 C5,17 5,5.99 5,5.99 C5,5.44 5.44,5 5.99,5 C5.99,5 12,5 12,5 C12.11,5 12.21,5.02 12.3,5.04 C12.7,5.17 12.99,5.55 12.99,5.99 C12.99,5.99 12.99,17 12.99,17"></path>
        <g id="l_d_1528" opacity="1" transform="matrix(1,0,0,1,8.996000289916992,10.998000144958496)">
          <path id="l_d_1529" stroke-linecap="round" stroke-linejoin="round" fill-opacity="0" stroke="rgb(34,34,34)" stroke-opacity="1" stroke-width="2" d="M-3.996000051498413,5.999000072479248 C-3.996000051498413,5.999000072479248 -3.996000051498413,-5.007999897003174 -3.996000051498413,-5.007999897003174 C-3.996000051498413,-5.554999828338623 -3.552999973297119,-5.999000072479248 -3.006999969482422,-5.999000072479248 C-3.006999969482422,-5.999000072479248 3.006999969482422,-5.999000072479248 3.006999969482422,-5.999000072479248 C3.109999895095825,-5.999000072479248 3.2090001106262207,-5.982999801635742 3.302000045776367,-5.953999996185303 C3.7039999961853027,-5.828999996185303 3.996000051498413,-5.452000141143799 3.996000051498413,-5.007999897003174 C3.996000051498413,-5.007999897003174 3.996000051498413,5.999000072479248 3.996000051498413,5.999000072479248"></path>
        </g>
      </g>
    </g>
    <filter id="__lottie_element_632" filterUnits="objectBoundingBox" x="0%" y="0%" width="100%" height="100%">
      <feComponentTransfer id="l_d_1539" in="SourceGraphic">
        <feFuncA id="l_d_1540" type="table" tableValues="1.0 0.0"></feFuncA>
      </feComponentTransfer>
    </filter>
    <mask id="__lottie_element_626_2" mask-type="alpha">
      <g id="l_d_1537" filter="url(#__lottie_element_632)">
        <rect id="l_d_1541" width="35" height="35" x="0" y="0" fill="#ffffff" opacity="0"></rect>
        <use id="l_d_1542" xlink:href="#__lottie_element_626"></use>
      </g>
    </mask>
  </defs>
  <g id="l_d_1507" clip-path="url(#__lottie_element_618)">
    <g id="l_d_1543" transform="matrix(1,0,0,1,1.5069999694824219,9.33899974822998)" opacity="1" style="display: block;">
      <g id="l_d_1547" opacity="1" transform="matrix(1,0,0,1,15.994999885559082,13.32800006866455)">
        <path id="l_d_1548" stroke-linecap="round" stroke-linejoin="round" fill-opacity="0" stroke="rgb(34,34,34)" stroke-opacity="1" stroke-width="2" d="M-10.994999885559082,-8.32800006866455 C-10.994999885559082,-8.32800006866455 -10.994999885559082,7.440000057220459 -10.994999885559082,7.440000057220459 C-10.994999885559082,7.929999828338623 -10.597000122070312,8.32800006866455 -10.107000350952148,8.32800006866455 C-10.107000350952148,8.32800006866455 10.107000350952148,8.32800006866455 10.107000350952148,8.32800006866455 C10.597999572753906,8.32800006866455 10.994999885559082,7.929999828338623 10.994999885559082,7.440000057220459 C10.994999885559082,7.440000057220459 10.994999885559082,-8.32800006866455 10.994999885559082,-8.32800006866455"></path>
      </g>
    </g>
    <g id="l_d_1531" mask="url(#__lottie_element_626_2)" style="display: block;">
      <g id="l_d_1530" transform="matrix(1,0,0,1,8.5,13.99799919128418)" opacity="1">
        <g id="l_d_1534" opacity="1" transform="matrix(1,0,0,1,8.996000289916992,10.998000144958496)">
          <path id="l_d_1535" stroke-linecap="round" stroke-linejoin="round" fill-opacity="0" stroke="rgb(34,34,34)" stroke-opacity="1" stroke-width="2" d="M-0.7570000290870667,-5.999000072479248 C-0.7570000290870667,-5.999000072479248 3.006999969482422,-5.999000072479248 3.006999969482422,-5.999000072479248 C3.109999895095825,-5.999000072479248 3.2090001106262207,-5.982999801635742 3.302000045776367,-5.953999996185303 C3.7039999961853027,-5.828999996185303 3.996000051498413,-5.452000141143799 3.996000051498413,-5.007999897003174 C3.996000051498413,-5.007999897003174 3.996000051498413,5.999000072479248 3.996000051498413,5.999000072479248"></path>
        </g>
      </g>
    </g>
    <g id="l_d_1516" transform="matrix(1,0,0,1,8.5,13.99799919128418)" opacity="1" style="display: block;">
      <g id="l_d_1520" opacity="1" transform="matrix(1,0,0,1,8.996000289916992,10.998000144958496)">
        <path id="l_d_1521" stroke-linecap="round" stroke-linejoin="round" fill-opacity="0" stroke="rgb(34,34,34)" stroke-opacity="1" stroke-width="2" d="M-3.996000051498413,5.999000072479248 C-3.996000051498413,5.999000072479248 -3.996000051498413,-5.007999897003174 -3.996000051498413,-5.007999897003174 C-3.996000051498413,-5.554999828338623 -3.552999973297119,-5.999000072479248 -3.006999969482422,-5.999000072479248 C-3.006999969482422,-5.999000072479248 3.006999969482422,-5.999000072479248 3.006999969482422,-5.999000072479248 C3.109999895095825,-5.999000072479248 3.2090001106262207,-5.982999801635742 3.302000045776367,-5.953999996185303 C3.7039999961853027,-5.828999996185303 3.996000051498413,-5.452000141143799 3.996000051498413,-5.007999897003174 C3.996000051498413,-5.007999897003174 3.996000051498413,5.999000072479248 3.996000051498413,5.999000072479248"></path>
      </g>
    </g>
    <g id="l_d_1510" transform="matrix(1,0,0,1,-2,-1.128000259399414)" opacity="1" style="display: block;">
      <g id="l_d_1514" opacity="1" transform="matrix(1,0,0,1,19.5,11.814000129699707)">
        <path id="l_d_1515" stroke-linecap="butt" stroke-linejoin="miter" fill-opacity="0" stroke-miterlimit="10" stroke="rgb(34,34,34)" stroke-opacity="1" stroke-width="2" d="M-14.5,6.814000129699707 C-14.5,6.814000129699707 -1.496999979019165,-5.997000217437744 -1.496999979019165,-5.997000217437744 C-0.6669999957084656,-6.815000057220459 0.6650000214576721,-6.815000057220459 1.4950000047683716,-5.997000217437744 C1.4950000047683716,-5.997000217437744 14.5,6.814000129699707 14.5,6.814000129699707"></path>
      </g>
    </g>
  </g>
</svg>
